<svg width="19" height="19" viewBox="0 0 19 19" fill="none" xmlns="http://www.w3.org/2000/svg">
<path d="M3.86664 16.2372C3.4414 16.2372 3.07749 16.0859 2.77493 15.7834C2.47237 15.4809 2.32083 15.1167 2.32031 14.6909V3.86664C2.32031 3.4414 2.47185 3.07749 2.77493 2.77493C3.07801 2.47237 3.44192 2.32083 3.86664 2.32031H14.6909C15.1161 2.32031 15.4803 2.47185 15.7834 2.77493C16.0865 3.07801 16.2378 3.44192 16.2372 3.86664V14.6909C16.2372 15.1161 16.0859 15.4803 15.7834 15.7834C15.4809 16.0865 15.1167 16.2378 14.6909 16.2372H3.86664ZM4.6398 13.1446H13.9177L11.0184 9.27877L8.6989 12.3714L6.95929 10.0519L4.6398 13.1446Z" fill="#EEEEEE"/>
</svg>
